<svg width="20" height="20" viewBox="0 0 20 20" fill="none" xmlns="http://www.w3.org/2000/svg">
<g id="Icon">
<path id="icon" fill-rule="evenodd" clip-rule="evenodd" d="M1.40039 9.99991C1.40039 5.25025 5.25074 1.3999 10.0004 1.3999C14.75 1.3999 18.6004 5.25025 18.6004 9.99991C18.6004 14.7496 14.75 18.5999 10.0004 18.5999C5.25074 18.5999 1.40039 14.7496 1.40039 9.99991ZM10.0004 2.5999C5.91348 2.5999 2.60039 5.91299 2.60039 9.99991C2.60039 14.0868 5.91348 17.3999 10.0004 17.3999C14.0873 17.3999 17.4004 14.0868 17.4004 9.99991C17.4004 5.91299 14.0873 2.5999 10.0004 2.5999ZM10.2299 6.31298C9.85332 6.26992 9.4722 6.33424 9.13055 6.49851C8.78891 6.66278 8.50069 6.92031 8.29915 7.24137C8.09762 7.56243 7.99096 7.93394 7.99152 8.31301L7.9924 8.91301L6.79241 8.91477L6.79152 8.31477C6.79063 7.70939 6.96095 7.1161 7.28281 6.60338C7.60466 6.09064 8.06494 5.67938 8.61054 5.41703C9.15613 5.1547 9.76478 5.05198 10.3662 5.12074C10.9677 5.18951 11.5374 5.42695 12.0097 5.80566C12.4821 6.18438 12.8376 6.68892 13.0355 7.26106C13.2332 7.83315 13.2653 8.44958 13.1278 9.03924C12.9903 9.62876 12.6889 10.1674 12.2584 10.5929C11.8278 11.0186 11.2857 11.3138 10.6946 11.4444L10.6812 11.4474C10.6588 11.4518 10.6384 11.4637 10.6236 11.4813C10.6091 11.4987 10.601 11.5202 10.6002 11.5425V12.5H9.40022V11.529C9.40409 11.2307 9.51043 10.9429 9.70118 10.7137C9.89033 10.4867 10.1514 10.3306 10.4408 10.2715C10.8089 10.1892 11.1464 10.0048 11.4147 9.73959C11.6843 9.47313 11.873 9.13579 11.9591 8.76662C12.0453 8.39754 12.0252 8.01149 11.9013 7.65317C11.7775 7.29492 11.5548 6.979 11.2591 6.74187C10.9633 6.50474 10.6066 6.35603 10.2299 6.31298ZM9.22749 14.4515C9.22749 14.0243 9.5738 13.6776 10.0014 13.6776C10.4275 13.6776 10.7757 14.0227 10.7757 14.4515C10.7757 14.8805 10.4273 15.2254 10.0014 15.2254C9.57396 15.2254 9.22749 14.8789 9.22749 14.4515Z" fill="#606B85"/>
</g>
</svg>
